<svg width="140" height="93" viewBox="0 0 140 93" fill="none" xmlns="http://www.w3.org/2000/svg">
<path d="M36.352 60.4315C37.7202 59.9475 39.2222 60.3871 40.2205 61.4083L47.0571 68.4014C47.3513 68.6989 47.9886 68.6989 48.2783 68.4014L55.115 61.4083C56.1133 60.3871 57.6152 59.943 58.9834 60.4315C60.5166 60.9731 61.2787 62.425 61.2787 63.988V75.0482C61.2787 75.8296 60.6414 76.4646 59.857 76.4646C59.0726 76.4646 58.4353 75.8296 58.4353 75.0482V63.988C58.4353 63.6771 58.3684 63.2198 58.0297 63.0999C57.7222 62.9889 57.3656 63.1665 57.1517 63.3841L50.315 70.3772C48.9067 71.8158 46.4287 71.8158 45.0204 70.3772L38.1837 63.3841C37.9698 63.1621 37.6133 62.9889 37.3057 63.0999C36.9626 63.2198 36.9002 63.6771 36.9002 63.988V75.0482C36.9002 75.8296 36.2629 76.4646 35.4785 76.4646C34.6941 76.4646 34.0568 75.8296 34.0568 75.0482V63.988C34.0568 62.425 34.8189 60.9731 36.352 60.4315Z" fill="black"/>
<path d="M66.1722 60.5336C66.7961 60.0629 67.6919 60.1872 68.1643 60.8133L77.5949 73.281C77.938 73.7339 78.6155 73.7339 78.9586 73.281L88.3891 60.8133C88.8616 60.1917 89.7529 60.0629 90.3813 60.5336C91.0053 61.0042 91.1345 61.8922 90.6621 62.5183L81.2316 74.986C79.7519 76.9397 76.806 76.9397 75.3264 74.986L65.8959 62.5183C65.4234 61.8922 65.5482 61.0042 66.1766 60.5336H66.1722Z" fill="black"/>
<path d="M97.5656 60.4315C98.9338 59.9475 100.436 60.3871 101.434 61.4083L108.271 68.4014C108.565 68.6989 109.202 68.6989 109.492 68.4014L116.329 61.4083C117.327 60.3871 118.829 59.943 120.197 60.4315C121.73 60.9731 122.492 62.425 122.492 63.988V75.0482C122.492 75.8296 121.855 76.4646 121.071 76.4646C120.286 76.4646 119.649 75.8296 119.649 75.0482V63.988C119.649 63.6771 119.582 63.2198 119.243 63.0999C118.936 62.9889 118.579 63.1665 118.365 63.3841L111.529 70.3772C110.12 71.8158 107.642 71.8158 106.234 70.3772L99.3973 63.3841C99.1834 63.1621 98.8269 62.9889 98.5194 63.0999C98.1762 63.2198 98.1138 63.6771 98.1138 63.988V75.0482C98.1138 75.8296 97.4765 76.4646 96.6921 76.4646C95.9077 76.4646 95.2704 75.8296 95.2704 75.0482V63.988C95.2704 62.425 96.0325 60.9731 97.5656 60.4315Z" fill="black"/>
<path d="M45.9875 45.8902C45.5819 45.8902 45.2432 45.7526 44.9669 45.4773C44.6906 45.202 44.5524 44.8601 44.5524 44.4605C44.5524 44.0609 44.6906 43.719 44.9669 43.4437C45.2432 43.1684 45.5864 43.0308 45.9875 43.0308H55.3512C55.7567 43.0308 56.0954 43.1684 56.3718 43.4437C56.6481 43.719 56.7862 44.0609 56.7862 44.4605C56.7862 46.1167 56.4698 47.6707 55.8459 49.1226C55.2175 50.5745 54.3618 51.8444 53.2743 52.9277C52.1868 54.0111 50.9167 54.8636 49.4549 55.4897C47.9975 56.1157 46.4332 56.4265 44.7753 56.4265C43.1173 56.4265 41.553 56.1157 40.0957 55.4897C38.6383 54.8636 37.3637 54.0111 36.2762 52.9277C35.1888 51.8444 34.3331 50.5789 33.7047 49.1226C33.0763 47.6707 32.7643 46.1122 32.7643 44.4605C32.7643 42.8088 33.0763 41.2503 33.7047 39.7984C34.3331 38.3465 35.1888 37.0767 36.2762 35.9933C37.3637 34.9099 38.6338 34.0574 40.0957 33.4313C41.553 32.8053 43.1173 32.4901 44.7753 32.4901C46.6516 32.4901 48.4209 32.903 50.0966 33.7333C51.7679 34.5591 53.1807 35.718 54.3306 37.201C54.5846 37.5606 54.6826 37.9114 54.6202 38.2533C54.5578 38.6129 54.3974 38.9104 54.1389 39.1457C53.8849 39.3811 53.564 39.4965 53.1807 39.4965C52.7128 39.4965 52.3384 39.3145 52.0621 38.9548C51.1663 37.8093 50.0877 36.9212 48.8175 36.2952C47.5518 35.6691 46.2014 35.3583 44.7753 35.3583C43.5184 35.3583 42.3374 35.5981 41.2277 36.0732C40.1179 36.5527 39.1508 37.2054 38.3219 38.0313C37.4929 38.8571 36.8378 39.8251 36.3564 40.9262C35.8751 42.0318 35.6389 43.2084 35.6389 44.4605C35.6389 45.7126 35.8796 46.8892 36.3564 47.9948C36.8378 49.1004 37.4929 50.0639 38.3219 50.8897C39.1508 51.7156 40.1224 52.3683 41.2277 52.8478C42.3329 53.3273 43.5184 53.5627 44.7753 53.5627C45.9028 53.5627 46.9724 53.3717 47.9886 52.9899C49.0003 52.608 49.905 52.0708 50.7028 51.3826C51.5005 50.6944 52.1735 49.8818 52.7172 48.9494C53.2609 48.017 53.6175 46.9958 53.7868 45.8946H45.992L45.9875 45.8902Z" fill="black"/>
<path d="M61.711 54.9968C61.711 55.4009 61.5728 55.7383 61.2965 56.0136C61.0202 56.2889 60.677 56.4265 60.2759 56.4265C59.8748 56.4265 59.5316 56.2889 59.2553 56.0136C58.979 55.7383 58.8408 55.3964 58.8408 54.9968V33.9242C58.8408 33.5202 58.979 33.1827 59.2553 32.9074C59.5316 32.6321 59.8748 32.4945 60.2759 32.4945C60.677 32.4945 61.0202 32.6321 61.2965 32.9074C61.5728 33.1827 61.711 33.5246 61.711 33.9242V54.9968Z" fill="black"/>
<path d="M72.318 39.6248C73.4635 39.6248 74.5469 39.8432 75.5636 40.28C76.5804 40.7167 77.4729 41.3184 78.2366 42.085C79.0003 42.8515 79.5997 43.7473 80.0348 44.7679C80.4699 45.7885 80.6875 46.876 80.6875 48.0258C80.6875 49.1757 80.4699 50.2943 80.0348 51.3149C79.5997 52.3355 79.0003 53.2269 78.2366 53.9845C77.4729 54.7422 76.5804 55.3438 75.5636 55.7895C74.5469 56.2352 73.4635 56.4625 72.318 56.4625C71.1724 56.4625 70.0579 56.2396 69.0412 55.7895C68.0244 55.3438 67.1364 54.7422 66.3816 53.9845C65.6267 53.2269 65.0273 52.34 64.5833 51.3149C64.1393 50.2943 63.9129 49.1935 63.9129 48.0258C63.9129 46.8581 64.1349 45.7885 64.5833 44.7679C65.0273 43.7473 65.6267 42.8515 66.3816 42.085C67.1364 41.3184 68.02 40.7167 69.0412 40.28C70.058 39.8432 71.1547 39.6248 72.318 39.6248ZM72.318 42.4994C71.5543 42.4994 70.8394 42.642 70.169 42.9317C69.4985 43.2214 68.9169 43.6136 68.4196 44.1128C67.9223 44.6119 67.5271 45.2002 67.2429 45.8687C66.9588 46.5373 66.8122 47.2593 66.8122 48.0258C66.8122 48.7924 66.9543 49.5099 67.2429 50.1829C67.5315 50.8559 67.9223 51.4397 68.4196 51.9389C68.9169 52.438 69.5029 52.8347 70.169 53.1199C70.8394 53.4096 71.5543 53.5522 72.318 53.5522C73.0816 53.5522 73.7965 53.4096 74.4669 53.1199C75.1374 52.8302 75.7191 52.438 76.2163 51.9389C76.7136 51.4397 77.1088 50.8514 77.393 50.1829C77.6816 49.5099 77.8236 48.7924 77.8236 48.0258C77.8236 47.2593 77.6816 46.5417 77.393 45.8687C77.1044 45.1958 76.7136 44.6119 76.2163 44.1128C75.7191 43.6136 75.133 43.217 74.4669 42.9317C73.7965 42.642 73.0816 42.4994 72.318 42.4994Z" fill="url(#paint0_linear_8_335)"/>
<path d="M82.4483 33.9198C82.4483 33.5157 82.5865 33.1783 82.8628 32.903C83.1391 32.6277 83.4823 32.4901 83.8834 32.4901C84.2845 32.4901 84.6277 32.6277 84.904 32.903C85.1803 33.1783 85.3185 33.5202 85.3185 33.9198V41.721C86.085 41.0416 86.9407 40.5266 87.89 40.1758C88.8393 39.8251 89.8242 39.6519 90.8448 39.6519C92.017 39.6519 93.1133 39.8739 94.1339 40.3223C95.1545 40.7708 96.0459 41.3658 96.8035 42.1206C97.5612 42.8754 98.1628 43.759 98.6085 44.7802C99.0542 45.797 99.2815 46.8937 99.2815 48.057C99.2815 49.2203 99.0587 50.2859 98.6085 51.3027C98.1628 52.3194 97.5612 53.2119 96.8035 53.9756C96.0459 54.7393 95.159 55.3387 94.1339 55.7738C93.1133 56.2089 92.0125 56.4265 90.8448 56.4265C89.6772 56.4265 88.6075 56.2089 87.5869 55.7738C86.5663 55.3387 85.6705 54.7393 84.904 53.9756C84.1374 53.2119 83.5357 52.3194 83.099 51.3027C82.6622 50.2859 82.4438 49.2025 82.4438 48.057V33.9242L82.4483 33.9198ZM90.8538 53.5627C91.6203 53.5627 92.3379 53.4206 93.0108 53.132C93.6838 52.8434 94.2676 52.4526 94.7668 51.9554C95.266 51.4581 95.6626 50.872 95.9478 50.206C96.2375 49.5355 96.3801 48.8207 96.3801 48.057C96.3801 47.2933 96.2375 46.5784 95.9478 45.908C95.6581 45.2375 95.266 44.6559 94.7668 44.1586C94.2676 43.6613 93.6793 43.2661 93.0108 42.982C92.3379 42.6934 91.6203 42.5513 90.8538 42.5513C90.0872 42.5513 89.3697 42.6934 88.6967 42.982C88.0237 43.2706 87.4399 43.6613 86.9407 44.1586C86.4416 44.6559 86.0449 45.242 85.7597 45.908C85.47 46.5784 85.3274 47.2933 85.3274 48.057C85.3274 48.8207 85.47 49.5355 85.7597 50.206C86.0494 50.8764 86.4416 51.4581 86.9407 51.9554C87.4399 52.4526 88.0282 52.8478 88.6967 53.132C89.3697 53.4206 90.0872 53.5627 90.8538 53.5627Z" fill="black"/>
<path d="M114.559 54.3575C113.793 55.0368 112.932 55.5518 111.988 55.9026C111.038 56.2534 110.053 56.4265 109.033 56.4265C107.883 56.4265 106.796 56.209 105.775 55.7738C104.754 55.3387 103.859 54.7393 103.092 53.9756C102.325 53.2119 101.724 52.3195 101.287 51.3027C100.85 50.2859 100.632 49.2025 100.632 48.057C100.632 46.9114 100.85 45.797 101.287 44.7802C101.724 43.7634 102.325 42.8754 103.092 42.1206C103.859 41.3658 104.754 40.7664 105.775 40.3224C106.796 39.8784 107.883 39.6519 109.033 39.6519C110.183 39.6519 111.301 39.8739 112.322 40.3224C113.343 40.7664 114.234 41.3658 114.992 42.1206C115.749 42.8754 116.342 43.759 116.779 44.7802C117.215 45.797 117.434 46.8937 117.434 48.057V54.9968C117.434 55.4009 117.296 55.7383 117.019 56.0136C116.743 56.2889 116.4 56.4265 115.999 56.4265C115.598 56.4265 115.254 56.2889 114.978 56.0136C114.702 55.7383 114.564 55.3964 114.564 54.9968V54.3619L114.559 54.3575ZM109.033 42.5468C108.266 42.5468 107.549 42.6889 106.876 42.9775C106.203 43.2661 105.619 43.6569 105.12 44.1542C104.621 44.6514 104.224 45.2375 103.939 45.9035C103.649 46.574 103.506 47.2889 103.506 48.0525C103.506 48.8162 103.649 49.5311 103.939 50.2015C104.228 50.872 104.621 51.4536 105.12 51.9509C105.619 52.4482 106.207 52.8434 106.876 53.1276C107.544 53.4117 108.266 53.5582 109.033 53.5582C109.799 53.5582 110.517 53.4162 111.19 53.1276C111.863 52.8389 112.447 52.4482 112.946 51.9509C113.445 51.4536 113.842 50.8676 114.127 50.2015C114.417 49.5311 114.559 48.8162 114.559 48.0525C114.559 47.2889 114.417 46.574 114.127 45.9035C113.837 45.2331 113.445 44.6514 112.946 44.1542C112.447 43.6569 111.858 43.2617 111.19 42.9775C110.517 42.6889 109.799 42.5468 109.033 42.5468Z" fill="black"/>
<path d="M122.867 54.9968C122.867 55.4009 122.728 55.7383 122.452 56.0136C122.176 56.2889 121.833 56.4265 121.432 56.4265C121.03 56.4265 120.687 56.2889 120.411 56.0136C120.135 55.7383 119.996 55.3964 119.996 54.9968V33.9242C119.996 33.5202 120.135 33.1827 120.411 32.9074C120.687 32.6321 121.03 32.4945 121.432 32.4945C121.833 32.4945 122.176 32.6321 122.452 32.9074C122.728 33.1827 122.867 33.5246 122.867 33.9242V54.9968Z" fill="black"/>
<path d="M17.072 51.6046C16.252 40.4245 22.5137 29.3509 31.8952 23.3479C38.9503 18.7391 47.8504 16.9365 56.1132 18.6193C58.823 19.1743 61.448 20.0712 63.8368 21.3632C62.4998 21.1101 61.1761 20.9059 59.8525 20.7505C53.0737 19.9779 46.1479 20.8171 39.8683 23.4412C27.9822 28.3785 19.7995 39.0569 17.072 51.6046Z" fill="black"/>
<defs>
<linearGradient id="paint0_linear_8_335" x1="72.1419" y1="39.6248" x2="72.1419" y2="56.4625" gradientUnits="userSpaceOnUse">
<stop offset="0.0385304" stop-color="#00FF87"/>
<stop offset="0.504875" stop-color="#0C00FF" stop-opacity="0.77811"/>
<stop offset="1" stop-color="#CD00FF"/>
</linearGradient>
</defs>
</svg>
