<svg width="16" height="16" viewBox="0 0 16 16" fill="none" xmlns="http://www.w3.org/2000/svg">
<rect width="16" height="16" rx="8" fill="#FF0909"/>
<path d="M3.90246 5.1V4.27H5.78246V11.5H4.86246V5.1H3.90246ZM7.23559 10.77C8.08225 10.09 8.74559 9.53333 9.22559 9.1C9.70559 8.66 10.1089 8.20333 10.4356 7.73C10.7689 7.25 10.9356 6.78 10.9356 6.32C10.9356 5.88667 10.8289 5.54667 10.6156 5.3C10.4089 5.04667 10.0723 4.92 9.60559 4.92C9.15225 4.92 8.79892 5.06333 8.54559 5.35C8.29892 5.63 8.16559 6.00667 8.14559 6.48H7.26559C7.29225 5.73333 7.51892 5.15667 7.94559 4.75C8.37225 4.34333 8.92225 4.14 9.59559 4.14C10.2823 4.14 10.8256 4.33 11.2256 4.71C11.6323 5.09 11.8356 5.61333 11.8356 6.28C11.8356 6.83333 11.6689 7.37333 11.3356 7.9C11.0089 8.42 10.6356 8.88 10.2156 9.28C9.79559 9.67333 9.25892 10.1333 8.60559 10.66H12.0456V11.42H7.23559V10.77Z" fill="white"/>
</svg>
