<svg width="18" height="20" viewBox="0 0 18 20" fill="none" xmlns="http://www.w3.org/2000/svg">
<path d="M14.625 7.71875C14.625 9.42207 14.1012 10.9955 13.2188 12.2721L17.6695 16.9738C18.109 17.4377 18.109 18.191 17.6695 18.6549C17.2301 19.1188 16.5164 19.1188 16.077 18.6549L11.6262 13.9531C10.4168 14.8883 8.92617 15.4375 7.3125 15.4375C3.27305 15.4375 0 11.9826 0 7.71875C0 3.45488 3.27305 0 7.3125 0C11.352 0 14.625 3.45488 14.625 7.71875ZM7.3125 13.0625C10.1074 13.0625 12.375 10.6689 12.375 7.71875C12.375 4.76856 10.1074 2.375 7.3125 2.375C4.51758 2.375 2.25 4.76856 2.25 7.71875C2.25 10.6689 4.51758 13.0625 7.3125 13.0625Z" fill="#0C00FF"/>
</svg>
