<svg width="19" height="20" viewBox="0 0 19 20" fill="none" xmlns="http://www.w3.org/2000/svg">
<path d="M7.33036 4.4174H11.6696V3.18042C11.6696 2.77067 11.9921 2.43823 12.3929 2.43823C12.7936 2.43823 13.1161 2.77067 13.1161 3.18042V4.4174H14.3214C15.3852 4.4174 16.25 5.30339 16.25 6.39657V16.2924C16.25 17.384 15.3852 18.2716 14.3214 18.2716H4.67857C3.61334 18.2716 2.75 17.384 2.75 16.2924V6.39657C2.75 5.30339 3.61334 4.4174 4.67857 4.4174H5.88393V3.18042C5.88393 2.77067 6.20636 2.43823 6.60714 2.43823C7.00792 2.43823 7.33036 2.77067 7.33036 3.18042V4.4174ZM4.19643 16.2924C4.19643 16.5645 4.41219 16.7872 4.67857 16.7872H14.3214C14.5866 16.7872 14.8036 16.5645 14.8036 16.2924V8.37573H4.19643V16.2924Z" fill="#0C00FF"/>
</svg>
