<svg width="44" height="44" viewBox="0 0 44 44" fill="none" xmlns="http://www.w3.org/2000/svg">
<rect width="44" height="44" rx="22" fill="#0C00FF"/>
<path d="M23.1433 13.25V13.9484C25.7327 14.398 27.715 16.8516 27.715 19.8125V21.1172C27.715 22.8906 28.2686 24.6133 29.2793 26L29.8115 26.7266C30.0187 27.0078 30.0579 27.3945 29.9151 27.7187C29.7722 28.043 29.4722 28.25 29.1436 28.25H14.8572C14.5275 28.25 14.2273 28.043 14.0846 27.7187C14.0147 27.5595 13.9872 27.3819 14.0055 27.2064C14.0238 27.0309 14.087 26.8645 14.1878 26.7266L14.7204 26C15.7336 24.6133 16.2858 22.8906 16.2858 21.1172V19.8125C16.2858 16.8516 18.2681 14.398 20.8575 13.9484V13.25C20.8575 12.5598 21.3682 12 22.0004 12C22.6326 12 23.1433 12.5598 23.1433 13.25ZM21.7147 15.75C19.6646 15.75 18.0002 17.5703 18.0002 19.8125V21.1172C18.0002 22.9883 17.5044 24.8125 16.5826 26.375H27.4185C26.497 24.8125 26.0006 22.9883 26.0006 21.1172V19.8125C26.0006 17.5703 24.3362 15.75 22.2861 15.75H21.7147ZM24.2862 29.5C24.2862 30.1289 24.0469 30.8008 23.6183 31.2695C23.1897 31.7383 22.5754 32 22.0004 32C21.3932 32 20.811 31.7383 20.3825 31.2695C19.9539 30.8008 19.7146 30.1289 19.7146 29.5H24.2862Z" fill="white"/>
</svg>
