<svg width="32" height="32" viewBox="0 0 32 32" fill="none" xmlns="http://www.w3.org/2000/svg">
<path d="M10.9375 10.9375C11.525 10.3562 12.475 10.3562 13.0063 10.9375L15.9438 13.8813L18.9375 10.9375C19.525 10.3562 20.475 10.3562 21.0063 10.9375C21.6438 11.525 21.6438 12.475 21.0063 13.0063L18.1187 15.9438L21.0063 18.9375C21.6438 19.525 21.6438 20.475 21.0063 21.0063C20.475 21.6438 19.525 21.6438 18.9375 21.0063L15.9438 18.1187L13.0063 21.0063C12.475 21.6438 11.525 21.6438 10.9375 21.0063C10.3562 20.475 10.3562 19.525 10.9375 18.9375L13.8813 15.9438L10.9375 13.0063C10.3562 12.475 10.3562 11.525 10.9375 10.9375ZM32 16C32 24.8375 24.8375 32 16 32C7.1625 32 0 24.8375 0 16C0 7.1625 7.1625 0 16 0C24.8375 0 32 7.1625 32 16ZM16 3C8.81875 3 3 8.81875 3 16C3 23.1812 8.81875 29 16 29C23.1812 29 29 23.1812 29 16C29 8.81875 23.1812 3 16 3Z" fill="#0C00FF"/>
</svg>
