<svg width="24" height="24" viewBox="0 0 24 24" fill="none" xmlns="http://www.w3.org/2000/svg">
<rect width="24" height="24" fill="white"/>
<path d="M11.8892 8.40233H11.1317L11.4294 9.09886C11.4783 9.21326 11.5004 9.34916 11.5004 9.52185C11.5004 10.6168 10.6188 11.4999 9.54487 11.4999C9.37499 11.4999 9.24216 11.4778 9.13056 11.4292L8.43099 11.1247V11.8876V11.9651C8.43099 13.9795 10.0205 15.5975 12.0004 15.5975C13.9767 15.5975 15.5699 13.9832 15.5699 11.9999C15.5699 10.0167 13.9767 8.40233 12.0004 8.40233H11.8892ZM4.95317 6.81256L4.95359 6.81216C6.69799 5.1759 9.06402 3.82666 12.0004 3.82666C14.9368 3.82666 17.3029 5.17589 19.0481 6.81224L19.0485 6.81256C20.7878 8.44034 21.9483 10.3568 22.4904 11.7096L22.4903 11.7097L22.4925 11.7149C22.5684 11.8983 22.5684 12.1015 22.4925 12.285L22.492 12.2862C21.9496 13.6065 20.788 15.525 19.0463 17.1893C17.3015 18.8262 14.936 20.1732 12.0004 20.1732C9.06477 20.1732 6.69935 18.8262 4.95534 17.1893C3.21376 15.5252 2.05263 13.6065 1.50701 12.2853L1.50699 12.2853C1.4697 12.195 1.45044 12.098 1.45044 11.9999C1.45044 11.9018 1.4697 11.8048 1.50699 11.7146L1.50701 11.7146L1.50865 11.7105C2.05398 10.3568 3.21396 8.44021 4.95317 6.81256ZM5.5238 7.44143L5.52324 7.44195C3.99351 8.87745 2.93543 10.5454 2.38894 11.8003L2.3007 12.0029L2.39115 12.2046C2.93511 13.4173 3.99097 15.12 5.52324 16.5579L5.5238 16.5584C7.16256 18.0915 9.33531 19.3146 12.0004 19.3146C14.6655 19.3146 16.8383 18.0915 18.4771 16.5584L18.4776 16.5579C20.0139 15.1163 21.0326 13.4131 21.606 12.2159L21.7079 12.0031L21.6084 11.7891C21.0319 10.5492 20.0117 8.88151 18.4776 7.44195L18.4771 7.44143C16.8383 5.90835 14.6655 4.68522 12.0004 4.68522C9.33531 4.68522 7.16256 5.90835 5.5238 7.44143ZM7.58932 11.9999C7.58932 9.53426 9.56825 7.54377 12.0004 7.54377C14.4326 7.54377 16.4115 9.53426 16.4115 11.9999C16.4115 14.4656 14.4326 16.4561 12.0004 16.4561C9.56825 16.4561 7.58932 14.4656 7.58932 11.9999Z" fill="#0C00FF" stroke="#0C00FF"/>
</svg>
