<svg width="24" height="24" viewBox="0 0 24 24" fill="none" xmlns="http://www.w3.org/2000/svg">
<path d="M11.9694 21.6C11.7657 21.6 11.5673 21.5952 11.3742 21.5856C11.1803 21.5752 10.9815 21.56 10.7778 21.54V22.8C10.7778 23.14 10.6609 23.4252 10.427 23.6556C10.1923 23.8852 9.90185 24 9.55556 24C9.20926 24 8.91919 23.8852 8.68533 23.6556C8.45067 23.4252 8.33333 23.14 8.33333 22.8V21C6.17407 20.26 4.41204 18.9648 3.04722 17.1144C1.68241 15.2648 1 13.16 1 10.8C1 9.3 1.29007 7.8952 1.87022 6.5856C2.45118 5.2752 3.23585 4.1352 4.22422 3.1656C5.21178 2.1952 6.37289 1.4248 7.70756 0.8544C9.04141 0.2848 10.462 0 11.9694 0C13.4769 0 14.9028 0.2848 16.2472 0.8544C17.5917 1.4248 18.763 2.1952 19.7611 3.1656C20.7593 4.1352 21.5488 5.2752 22.1298 6.5856C22.7099 7.8952 23 9.3 23 10.8C23 13.16 22.3123 15.2552 20.9369 17.0856C19.5623 18.9152 17.8056 20.21 15.6667 20.97V22.8C15.6667 23.14 15.5497 23.4252 15.3159 23.6556C15.0812 23.8852 14.7907 24 14.4444 24C14.0981 24 13.8081 23.8852 13.5742 23.6556C13.3396 23.4252 13.2222 23.14 13.2222 22.8V21.54C13.0185 21.58 12.8148 21.6 12.6111 21.6H11.9694ZM12 19.26C14.363 19.26 16.3796 18.44 18.05 16.8C19.7204 15.16 20.5556 13.18 20.5556 10.86C20.5556 8.54 19.7204 6.56 18.05 4.92C16.3796 3.28 14.363 2.46 12 2.46C9.63704 2.46 7.62037 3.28 5.95 4.92C4.27963 6.56 3.44444 8.54 3.44444 10.86C3.44444 13.18 4.27963 15.16 5.95 16.8C7.62037 18.44 9.63704 19.26 12 19.26ZM15.6667 8.46C16.013 8.46 16.3034 8.3448 16.5381 8.1144C16.772 7.8848 16.8889 7.6 16.8889 7.26C16.8889 6.92 16.772 6.6348 16.5381 6.4044C16.3034 6.1748 16.013 6.06 15.6667 6.06H8.33333C7.98704 6.06 7.69696 6.1748 7.46311 6.4044C7.22844 6.6348 7.11111 6.92 7.11111 7.26C7.11111 7.6 7.22844 7.8848 7.46311 8.1144C7.69696 8.3448 7.98704 8.46 8.33333 8.46H15.6667ZM13.2222 12.96L13.8333 12.36C13.9556 12.24 14.0525 12.1 14.1242 11.94C14.1951 11.78 14.2306 11.62 14.2306 11.46C14.2306 11.3 14.1951 11.14 14.1242 10.98C14.0525 10.82 13.9556 10.68 13.8333 10.56C13.5685 10.3 13.263 10.17 12.9167 10.17C12.5704 10.17 12.2648 10.3 12 10.56L10.1056 12.42C9.86111 12.66 9.73889 12.94 9.73889 13.26C9.73889 13.58 9.86111 13.86 10.1056 14.1L10.7778 14.76L10.1667 15.36C10.0444 15.48 9.94789 15.62 9.877 15.78C9.8053 15.94 9.76944 16.1 9.76944 16.26C9.76944 16.42 9.8053 16.58 9.877 16.74C9.94789 16.9 10.0444 17.04 10.1667 17.16C10.4315 17.42 10.737 17.55 11.0833 17.55C11.4296 17.55 11.7352 17.42 12 17.16L13.8944 15.3C14.1389 15.06 14.2611 14.78 14.2611 14.46C14.2611 14.14 14.1389 13.86 13.8944 13.62L13.2222 12.96Z" fill="#0C00FF"/>
</svg>
