<svg width="24" height="24" viewBox="0 0 24 24" fill="none" xmlns="http://www.w3.org/2000/svg">
<path d="M7.08908 11.9999C7.08908 9.26243 9.28757 7.04377 12.0002 7.04377C14.7128 7.04377 16.9113 9.26243 16.9113 11.9999C16.9113 14.7374 14.7128 16.9561 12.0002 16.9561C9.28757 16.9561 7.08908 14.7374 7.08908 11.9999ZM12.0002 15.0975C13.696 15.0975 15.0696 13.7113 15.0696 11.9999C15.0696 10.2885 13.696 8.90233 12.0002 8.90233H11.8889C11.9733 9.0998 12.0002 9.30889 12.0002 9.52185C12.0002 10.8887 10.899 11.9999 9.54463 11.9999C9.33361 11.9999 9.12642 11.9728 8.93074 11.8876V11.9651C8.93074 13.7113 10.3043 15.0975 12.0002 15.0975ZM4.61127 6.44749C6.41764 4.7531 8.90005 3.32666 12.0002 3.32666C15.1003 3.32666 17.5827 4.7531 19.3899 6.44749C21.1855 8.12793 22.3864 10.1065 22.9542 11.5237C23.0809 11.8296 23.0809 12.1703 22.9542 12.4762C22.3864 13.8585 21.1855 15.8371 19.3899 17.5524C17.5827 19.2483 15.1003 20.6732 12.0002 20.6732C8.90005 20.6732 6.41764 19.2483 4.61127 17.5524C2.81565 15.8371 1.6155 13.8585 1.04462 12.4762C0.982289 12.3253 0.950195 12.1634 0.950195 11.9999C0.950195 11.8364 0.982289 11.6746 1.04462 11.5237C1.6155 10.1065 2.81565 8.12793 4.61127 6.44749ZM12.0002 5.18522C9.49859 5.18522 7.44206 6.33133 5.86514 7.80656C4.38797 9.19273 3.36815 10.8035 2.84711 11.9999C3.36815 13.1615 4.38797 14.8071 5.86514 16.1933C7.44206 17.6685 9.49859 18.8146 12.0002 18.8146C14.5018 18.8146 16.5583 17.6685 18.1352 16.1933C19.6124 14.8071 20.5984 13.1615 21.1548 11.9999C20.5984 10.8035 19.6124 9.19273 18.1352 7.80656C16.5583 6.33133 14.5018 5.18522 12.0002 5.18522Z" fill="black"/>
</svg>
