<svg width="18" height="19" viewBox="0 0 18 19" fill="none" xmlns="http://www.w3.org/2000/svg">
<path d="M8.15625 4.45312C8.15625 3.95957 8.53242 3.5625 9 3.5625C9.46758 3.5625 9.84375 3.95957 9.84375 4.45312V9.025L12.8426 11.1328C13.2293 11.4074 13.3348 11.9604 13.0465 12.3686C12.818 12.7768 12.2941 12.8881 11.9074 12.5838L8.53242 10.2088C8.29687 10.0752 8.15625 9.79688 8.15625 9.4666V4.45312V4.45312ZM9 0C13.9711 0 18 4.25273 18 9.5C18 14.7473 13.9711 19 9 19C4.02891 19 0 14.7473 0 9.5C0 4.25273 4.02891 0 9 0ZM1.6875 9.5C1.6875 13.7639 4.96055 17.2188 9 17.2188C13.0395 17.2188 16.3125 13.7639 16.3125 9.5C16.3125 5.23613 13.0395 1.78125 9 1.78125C4.96055 1.78125 1.6875 5.23613 1.6875 9.5Z" fill="#0C00FF"/>
</svg>
