<svg width="24" height="24" viewBox="0 0 24 24" fill="none" xmlns="http://www.w3.org/2000/svg">
<path d="M12 0C5.37188 0 0 5.37188 0 12C0 18.6281 5.37188 24 12 24C18.6281 24 24 18.6281 24 12C24 5.37188 18.6281 0 12 0ZM5.95312 13.9219C5.5125 13.4812 5.5125 12.7688 5.95312 12.3328C6.39375 11.8969 7.10625 11.8922 7.54219 12.3328L10.8703 15.6609L10.875 5.625C10.875 5.00156 11.3766 4.5 12 4.5C12.6234 4.5 13.125 5.00156 13.125 5.625V15.6609L16.4531 12.3328C16.8937 11.8922 17.6062 11.8922 18.0422 12.3328C18.4781 12.7734 18.4828 13.4859 18.0422 13.9219L12.7969 19.1719C12.3562 19.6125 11.6438 19.6125 11.2078 19.1719L5.95312 13.9219Z" fill="#0C00FF"/>
</svg>
