<svg width="24" height="24" viewBox="0 0 24 24" fill="none" xmlns="http://www.w3.org/2000/svg">
<path d="M24 12C24 5.37188 18.6281 0 12 0C5.37188 0 0 5.37188 0 12C0 18.6281 5.37188 24 12 24C18.6281 24 24 18.6281 24 12ZM10.0781 5.95312C10.5188 5.5125 11.2312 5.5125 11.6672 5.95312C12.1031 6.39375 12.1078 7.10625 11.6672 7.54219L8.33906 10.8703L18.375 10.875C18.9984 10.875 19.5 11.3766 19.5 12C19.5 12.6234 18.9984 13.125 18.375 13.125H8.33906L11.6672 16.4531C12.1078 16.8937 12.1078 17.6062 11.6672 18.0422C11.2266 18.4781 10.5141 18.4828 10.0781 18.0422L4.82812 12.7969C4.3875 12.3562 4.3875 11.6438 4.82812 11.2078L10.0781 5.95312Z" fill="#92D050"/>
</svg>
